<svg class="eadgram_logo" xmlns="http://www.w3.org/2000/svg" xmlns:xlink="http://www.w3.org/1999/xlink" style="isolation:isolate" viewBox="0 0 130.8 40.9" width="130.8" height="40.9">

  <style>

    .eadgram_logo {
      padding: 1px;
    }

    .eadgram_path {
      stroke-dasharray: 857.4342651367188;
      stroke-dashoffset: 857.4342651367188;
      fill: #00000000;
      stroke: #FFF;
      stroke-width: 1px;
      animation: draw 2s linear forwards,
                 fillcolor 1s ease-in 0.5s forwards,
                 strokecolor 1s linear 0.5s forwards;
    }
    @keyframes draw {
        to {
            stroke-dashoffset: 0;
        }
    }
    @keyframes fillcolor {
      from { fill: #00000000; }
      to { fill: #FFF; }
    }
    @keyframes strokecolor {
      from { stroke: #FFF; }
      to { stroke: #00000000; }
    }

  </style>

<path class="eadgram_path" d=" M 102.58 29.036 Q 102.787 29.185 102.97 29.238 L 102.97 29.238 L 103.331 29.238 L 104.315 29.277 L 104.315 29.277 L 104.315 29.277 Q 104.496 29.277 105.018 28.693 L 105.018 28.693 L 105.018 28.693 Q 105.54 28.109 105.721 27.837 L 105.721 27.837 L 105.721 27.837 Q 108.512 23.184 113.593 18.473 L 113.593 18.473 L 113.593 18.473 Q 115.441 16.76 116.033 16.76 L 116.033 16.76 L 116.033 16.76 Q 116.626 16.76 116.626 17.237 L 116.626 17.237 L 116.626 17.237 Q 116.626 17.714 113.432 22.98 L 113.432 22.98 L 113.432 22.98 Q 110.239 28.246 110.239 28.44 L 110.239 28.44 L 110.239 28.44 Q 110.239 28.83 110.942 29.073 L 110.942 29.073 L 110.942 29.073 Q 111.645 29.316 112.298 29.316 L 112.298 29.316 L 112.298 29.316 Q 112.95 29.316 113.252 28.927 L 113.252 28.927 L 113.252 28.927 Q 115.882 25.598 116.585 24.781 L 116.585 24.781 L 116.585 24.781 Q 119.256 21.685 122.931 18.357 L 122.931 18.357 L 122.931 18.357 Q 125.08 16.41 125.703 16.41 L 125.703 16.41 L 125.703 16.41 Q 125.863 16.41 125.863 16.507 L 125.863 16.507 L 125.863 16.507 Q 125.863 16.605 124.99 17.763 L 124.99 17.763 L 124.99 17.763 Q 124.116 18.921 123.072 20.362 L 123.072 20.362 L 123.072 20.362 Q 122.028 21.802 121.154 23.574 L 121.154 23.574 L 121.154 23.574 Q 120.28 25.345 120.28 26.591 L 120.28 26.591 L 120.28 26.591 Q 120.28 27.837 121.074 28.742 L 121.074 28.742 L 121.074 28.742 Q 121.867 29.647 123.935 29.842 L 123.935 29.842 L 123.935 29.842 Q 124.036 29.861 124.257 29.861 L 124.257 29.861 L 124.257 29.861 Q 126.084 29.861 128.072 28.284 L 128.072 28.284 L 128.072 28.284 Q 130.061 26.708 130.643 25.618 L 130.643 25.618 L 130.643 25.618 Q 130.763 25.384 130.763 24.781 L 130.763 24.781 L 130.763 24.781 Q 130.763 24.177 130.683 23.613 L 130.683 23.613 L 130.683 23.613 Q 130.603 23.048 130.221 23.048 L 130.221 23.048 L 130.221 23.048 Q 129.98 23.048 129.779 23.223 L 129.779 23.223 L 129.779 23.223 Q 128.836 24.138 127.731 25.111 L 127.731 25.111 L 127.731 25.111 Q 127.048 25.715 126.175 26.279 L 126.175 26.279 L 126.175 26.279 Q 125.301 26.844 124.819 26.883 L 124.819 26.883 L 124.819 26.883 Q 124.337 26.922 123.996 26.756 L 123.996 26.756 L 123.996 26.756 Q 123.654 26.591 123.654 25.695 L 123.654 25.695 L 123.654 25.695 Q 123.654 25.053 125.271 22.571 L 125.271 22.571 L 125.271 22.571 Q 126.888 20.089 128.514 17.627 L 128.514 17.627 L 128.514 17.627 Q 130.141 15.164 130.141 14.512 L 130.141 14.512 L 130.141 14.512 Q 130.141 13.86 129.619 13.393 L 129.619 13.393 L 129.619 13.393 Q 129.097 12.926 128.333 12.926 L 128.333 12.926 L 128.333 12.926 Q 126.104 12.926 123.935 14.249 L 123.935 14.249 L 123.935 14.249 Q 123.032 14.814 121.987 15.719 L 121.987 15.719 L 121.987 15.719 Q 120.943 16.624 120.25 17.344 L 120.25 17.344 L 120.25 17.344 Q 119.558 18.065 118.553 19.135 L 118.553 19.135 L 118.553 19.135 Q 117.549 20.206 116.987 20.751 L 116.987 20.751 L 116.987 20.751 Q 117.027 20.693 117.499 20.148 L 117.499 20.148 L 117.499 20.148 Q 117.971 19.603 118.122 19.408 L 118.122 19.408 L 118.122 19.408 Q 118.272 19.213 118.674 18.697 L 118.674 18.697 L 118.674 18.697 Q 119.076 18.181 119.246 17.86 L 119.246 17.86 L 119.246 17.86 Q 119.417 17.539 119.658 17.082 L 119.658 17.082 L 119.658 17.082 Q 119.899 16.624 119.989 16.206 L 119.989 16.206 L 119.989 16.206 Q 120.08 15.787 120.08 15.154 L 120.08 15.154 L 120.08 15.154 Q 120.08 14.522 119.547 13.967 L 119.547 13.967 L 119.547 13.967 Q 119.015 13.412 118.021 13.412 L 118.021 13.412 L 118.021 13.412 Q 117.027 13.412 114.808 14.765 L 114.808 14.765 L 114.808 14.765 Q 112.589 16.118 109.838 18.882 L 109.838 18.882 L 109.838 18.882 Q 109.958 18.727 110.842 17.675 L 110.842 17.675 L 110.842 17.675 Q 111.725 16.624 112.368 15.807 L 112.368 15.807 L 112.368 15.807 Q 113.011 14.989 113.171 14.629 L 113.171 14.629 L 113.171 14.629 Q 113.332 14.269 113.332 14.055 L 113.332 14.055 L 113.332 14.055 Q 113.332 13.295 112.83 13.295 L 112.83 13.295 L 112.83 13.295 Q 111.987 13.295 111.093 13.578 L 111.093 13.578 L 111.093 13.578 Q 110.199 13.86 109.798 14.405 L 109.798 14.405 L 109.798 14.405 Q 106.73 18.603 103.479 25.159 Q 103.449 25.189 103.419 25.219 L 103.419 25.219 L 103.419 25.219 Q 102.777 25.851 101.953 26.406 L 101.953 26.406 L 101.953 26.406 Q 101.13 26.961 100.528 26.961 L 100.528 26.961 L 100.528 26.961 Q 99.925 26.961 99.925 25.89 L 99.925 25.89 L 99.925 25.89 Q 99.925 25.54 99.985 25.345 L 99.985 25.345 L 99.985 25.345 Q 100.287 23.768 101.321 21.539 L 101.321 21.539 L 101.321 21.539 Q 102.355 19.311 103.209 17.88 L 103.209 17.88 L 103.209 17.88 Q 104.062 16.449 104.323 16.196 L 104.323 16.196 L 104.323 16.196 Q 104.584 15.943 104.584 15.398 L 104.584 15.398 L 104.584 15.398 Q 104.584 14.386 103.058 14.386 L 103.058 14.386 L 103.058 14.386 L 103.058 14.386 Q 102.395 14.386 102.064 14.57 L 102.064 14.57 L 102.064 14.57 Q 101.733 14.755 101.251 15.456 L 101.251 15.456 L 101.251 15.456 Q 101.07 14.931 100.387 14.58 L 100.387 14.58 L 100.387 14.58 Q 99.704 14.23 98.62 14.23 L 98.62 14.23 L 98.62 14.23 Q 95.808 14.23 92.475 16.76 L 92.475 16.76 L 92.475 16.76 Q 90.888 17.967 89.563 19.437 L 89.563 19.437 L 89.563 19.437 Q 88.237 20.907 87.424 22.688 L 87.424 22.688 L 87.424 22.688 Q 86.611 24.469 86.611 26.231 L 86.611 26.231 L 86.611 26.231 Q 86.611 27.992 87.715 28.985 L 87.715 28.985 L 87.715 28.985 Q 88.579 29.783 89.944 29.783 L 89.944 29.783 L 89.944 29.783 Q 91.31 29.783 93.469 28.323 L 93.469 28.323 L 93.469 28.323 Q 95.628 26.863 97.294 24.761 L 97.294 24.761 L 97.294 24.761 Q 96.893 25.637 96.893 26.795 L 96.893 26.795 L 96.893 26.795 Q 96.893 27.954 97.656 28.907 L 97.656 28.907 L 97.656 28.907 Q 98.419 29.861 100.036 29.861 L 100.036 29.861 L 100.036 29.861 Q 101.212 29.861 102.58 29.036 Z  M 35.096 16.422 L 35.096 16.422 L 35.096 16.422 Q 31.662 16.422 27.987 20.12 L 27.987 20.12 L 27.987 20.12 Q 26.681 21.444 25.587 23.293 L 25.587 23.293 L 25.587 23.293 Q 24.492 25.143 24.492 25.824 L 24.492 25.824 L 24.492 25.824 Q 24.492 26.505 24.894 26.505 L 24.894 26.505 L 24.894 26.505 Q 25.456 26.505 28.027 24.354 L 28.027 24.354 L 28.027 24.354 Q 30.597 22.203 31.441 21.191 L 31.441 21.191 L 31.441 21.191 Q 32.365 20.062 35.096 16.422 L 35.096 16.422 L 35.096 16.422 L 35.096 16.422 L 35.096 16.422 L 35.096 16.422 L 35.096 16.422 Z  M 51.993 16.293 L 51.993 16.293 L 51.993 16.293 Q 49.101 16.916 46.611 18.902 L 46.611 18.902 L 46.611 18.902 Q 44.121 20.887 42.876 23.058 L 42.876 23.058 L 42.876 23.058 Q 41.63 25.228 41.63 25.871 L 41.63 25.871 L 41.63 25.871 Q 41.63 26.513 41.912 26.513 L 41.912 26.513 L 41.912 26.513 Q 43.117 26.513 47.876 21.296 L 47.876 21.296 L 47.876 21.296 Q 50.246 18.727 51.993 16.293 L 51.993 16.293 L 51.993 16.293 L 51.993 16.293 L 51.993 16.293 L 51.993 16.293 L 51.993 16.293 Z  M 69.886 15.565 L 69.886 15.565 L 69.886 15.565 Q 67.557 16.052 65.508 17.171 L 65.508 17.171 L 65.508 17.171 Q 63.46 18.29 62.134 19.566 L 62.134 19.566 L 62.134 19.566 Q 60.809 20.841 59.845 22.184 L 59.845 22.184 L 59.845 22.184 Q 58.038 24.695 58.038 26.077 L 58.038 26.077 L 58.038 26.077 Q 58.038 26.408 58.208 26.408 L 58.208 26.408 L 58.208 26.408 Q 58.379 26.408 58.971 26.058 L 58.971 26.058 L 58.971 26.058 Q 59.564 25.707 60.648 24.86 L 60.648 24.86 L 60.648 24.86 Q 61.733 24.014 63.058 22.846 L 63.058 22.846 L 63.058 22.846 Q 66.131 20.101 69.886 15.565 L 69.886 15.565 L 69.886 15.565 L 69.886 15.565 L 69.886 15.565 L 69.886 15.565 Z  M 7.852 10.403 L 7.852 10.403 L 7.852 10.403 Q 7.852 11.668 12.411 11.668 L 12.411 11.668 L 12.411 11.668 Q 13.535 11.668 14.078 11.434 L 14.078 11.434 L 14.078 11.434 Q 15.503 10.773 17.582 10.773 L 17.582 10.773 L 17.582 10.773 Q 19.661 10.773 19.661 11.804 L 19.661 11.804 L 19.661 11.804 Q 19.661 12.213 19.309 13.002 L 19.309 13.002 L 19.309 13.002 Q 18.958 13.79 18.787 13.965 L 18.787 13.965 L 18.787 13.965 Q 18.616 14.14 17.492 14.442 L 17.492 14.442 L 17.492 14.442 Q 16.367 14.744 16.036 14.773 L 16.036 14.773 L 16.036 14.773 Q 15.704 14.802 15.594 14.822 L 15.594 14.822 L 15.594 14.822 Q 15.483 14.841 15.333 14.861 L 15.333 14.861 L 15.333 14.861 Q 15.182 14.88 14.66 14.968 L 14.66 14.968 L 14.66 14.968 Q 14.138 15.055 13.897 14.958 L 13.897 14.958 L 13.897 14.958 Q 7.25 18.131 4.759 21.927 L 4.759 21.927 L 4.759 21.927 Q 3.635 23.64 3.635 24.866 L 3.635 24.866 L 3.635 24.866 Q 3.635 26.793 6.386 26.793 L 6.386 26.793 L 6.386 26.793 Q 8.535 26.793 11.849 25.158 L 11.849 25.158 L 11.849 25.158 Q 15.162 23.523 17.723 21.197 L 17.723 21.197 L 17.723 21.197 Q 20.283 18.871 20.283 17.158 L 20.283 17.158 L 20.283 17.158 Q 20.283 16.613 21.127 16.613 L 21.127 16.613 L 21.127 16.613 Q 23.074 16.613 23.074 18.851 L 23.074 18.851 L 23.074 18.851 Q 23.074 19.902 22.131 21.353 L 22.131 21.353 L 22.131 21.353 Q 21.187 22.803 19.5 24.292 L 19.5 24.292 L 19.5 24.292 Q 17.813 25.781 15.744 27.066 L 15.744 27.066 L 15.744 27.066 Q 13.676 28.351 11.156 29.168 L 11.156 29.168 L 11.156 29.168 Q 8.635 29.986 6.888 29.986 L 6.888 29.986 L 6.888 29.986 Q 5.141 29.986 4.067 29.665 L 4.067 29.665 L 4.067 29.665 Q 2.992 29.343 2.048 28.701 L 2.048 28.701 L 2.048 28.701 Q 0 27.319 0 24.516 L 0 24.516 L 0 24.516 Q 0 22.997 0.843 21.43 L 0.843 21.43 L 0.843 21.43 Q 1.687 19.863 3.052 18.579 L 3.052 18.579 L 3.052 18.579 Q 5.563 16.165 8.435 14.569 L 8.435 14.569 L 8.435 14.569 Q 4.298 13.654 4.298 10.442 L 4.298 10.442 L 4.298 10.442 Q 4.298 6.821 10.041 3.823 L 10.041 3.823 L 10.041 3.823 Q 13.234 2.169 16.969 1.448 L 16.969 1.448 L 16.969 1.448 Q 18.737 1.098 19.922 1.098 L 19.922 1.098 L 19.922 1.098 Q 22.331 1.098 23.556 1.468 L 23.556 1.468 L 23.556 1.468 Q 24.299 1.818 24.761 2.451 L 24.761 2.451 L 24.761 2.451 Q 25.223 3.083 25.223 3.541 L 25.223 3.541 L 25.223 3.541 Q 25.223 3.998 25.103 4.368 L 25.103 4.368 L 25.103 4.368 Q 24.982 4.738 24.701 4.952 L 24.701 4.952 L 24.701 4.952 Q 24.299 5.244 23.797 5.4 L 23.797 5.4 L 23.797 5.4 Q 23.295 5.556 23.215 5.595 L 23.215 5.595 L 23.215 5.595 Q 21.649 6.237 20.524 6.237 L 20.524 6.237 L 20.524 6.237 Q 18.516 6.237 18.335 5.731 L 18.335 5.731 L 18.335 5.731 Q 18.375 5.225 18.777 4.563 L 18.777 4.563 L 18.777 4.563 Q 16.869 4.641 14.821 5.312 L 14.821 5.312 L 14.821 5.312 Q 12.772 5.984 11.276 6.889 L 11.276 6.889 L 11.276 6.889 Q 9.78 7.794 8.816 8.768 L 8.816 8.768 L 8.816 8.768 Q 7.852 9.741 7.852 10.403 L 7.852 10.403 L 7.852 10.403 L 7.852 10.403 Z  M 73.22 23.346 Q 69.662 25.164 65.247 28.958 L 65.247 28.958 L 65.247 28.958 Q 69.886 21.055 74.324 14.884 L 74.324 14.884 L 74.324 14.884 Q 74.344 14.864 74.475 14.748 L 74.475 14.748 L 74.475 14.748 Q 74.605 14.631 74.706 14.504 L 74.706 14.504 L 74.706 14.504 Q 74.806 14.378 74.806 14.29 L 74.806 14.29 L 74.806 14.29 Q 74.806 14.203 74.786 14.164 L 74.786 14.164 L 74.786 14.164 Q 74.766 14.125 74.666 13.774 L 74.666 13.774 L 74.666 13.774 Q 74.565 13.424 74.445 13.297 L 74.445 13.297 L 74.445 13.297 Q 74.324 13.171 73.822 13.171 L 73.822 13.171 L 73.822 13.171 Q 73.32 13.171 72.979 13.19 L 72.979 13.19 L 72.979 13.19 Q 71.814 13.249 71.031 14.125 L 71.031 14.125 L 71.031 14.125 Q 70.649 13.366 69.284 13.366 L 69.284 13.366 L 69.284 13.366 Q 67.918 13.366 66.05 14.066 L 66.05 14.066 L 66.05 14.066 Q 64.183 14.767 62.245 16.062 L 62.245 16.062 L 62.245 16.062 L 62.245 16.062 Q 60.307 17.356 58.64 18.982 L 58.64 18.982 L 58.64 18.982 Q 56.973 20.607 55.909 22.67 L 55.909 22.67 L 55.909 22.67 Q 55.307 23.838 55.045 24.993 Q 54.904 25.131 54.764 25.267 L 54.764 25.267 L 54.764 25.267 Q 54.122 25.89 53.268 26.435 L 53.268 26.435 L 53.268 26.435 Q 52.415 26.98 51.812 26.98 L 51.812 26.98 L 51.812 26.98 Q 51.21 26.98 51.21 26.182 L 51.21 26.182 L 51.21 26.026 L 51.21 26.026 Q 51.21 24.995 53.8 20.031 L 53.8 20.031 L 53.8 20.031 Q 56.391 15.067 60.95 7.884 L 60.95 7.884 L 60.95 7.884 Q 61.733 6.638 63.139 4.448 L 63.139 4.448 L 63.139 4.448 Q 64.544 2.258 64.936 1.606 L 64.936 1.606 L 64.936 1.606 Q 65.327 0.954 65.327 0.711 L 65.327 0.711 L 65.327 0.711 Q 65.327 0.467 65.107 0.234 L 65.107 0.234 L 65.107 0.234 Q 64.886 0 64.504 0 L 64.504 0 L 64.504 0 L 64.504 0 Q 62.717 0 61.873 1.071 L 61.873 1.071 L 61.873 1.071 Q 60.287 2.842 55.367 10.882 L 55.367 10.882 L 55.367 10.882 Q 53.8 13.568 53.218 14.463 L 53.218 14.463 L 53.218 14.463 Q 52.354 13.704 51.712 13.704 L 51.712 13.704 L 51.712 13.704 Q 49.683 13.704 47.274 14.94 L 47.274 14.94 L 47.274 14.94 Q 44.864 16.176 42.886 18.016 L 42.886 18.016 L 42.886 18.016 Q 40.907 19.856 39.582 22.153 L 39.582 22.153 L 39.582 22.153 Q 38.748 23.598 38.439 24.784 L 38.439 24.784 Q 38.284 24.94 38.128 25.094 L 38.128 25.094 L 38.128 25.094 Q 37.485 25.727 36.662 26.281 L 36.662 26.281 L 36.662 26.281 Q 35.839 26.836 35.236 26.836 L 35.236 26.836 L 35.236 26.836 Q 34.634 26.836 34.634 25.766 L 34.634 25.766 L 34.634 25.766 Q 34.634 25.415 34.694 25.22 L 34.694 25.22 L 34.694 25.22 Q 34.995 23.644 36.03 21.415 L 36.03 21.415 L 36.03 21.415 Q 37.064 19.186 37.917 17.755 L 37.917 17.755 L 37.917 17.755 Q 38.771 16.324 39.032 16.071 L 39.032 16.071 L 39.032 16.071 Q 39.293 15.818 39.293 15.273 L 39.293 15.273 L 39.293 15.273 Q 39.293 14.261 37.767 14.261 L 37.767 14.261 L 37.767 14.261 L 37.767 14.261 Q 37.104 14.261 36.773 14.446 L 36.773 14.446 L 36.773 14.446 Q 36.441 14.631 35.959 15.332 L 35.959 15.332 L 35.959 15.332 Q 35.778 14.806 35.096 14.456 L 35.096 14.456 L 35.096 14.456 Q 34.413 14.105 33.328 14.105 L 33.328 14.105 L 33.328 14.105 Q 30.517 14.105 27.183 16.636 L 27.183 16.636 L 27.183 16.636 Q 25.597 17.843 24.271 19.312 L 24.271 19.312 L 24.271 19.312 Q 22.946 20.782 22.133 22.563 L 22.133 22.563 L 22.133 22.563 Q 21.319 24.345 21.319 26.106 L 21.319 26.106 L 21.319 26.106 Q 21.319 27.868 22.424 28.861 L 22.424 28.861 L 22.424 28.861 Q 23.287 29.659 24.653 29.659 L 24.653 29.659 L 24.653 29.659 Q 26.019 29.659 28.177 28.199 L 28.177 28.199 L 28.177 28.199 Q 30.336 26.739 32.003 24.636 L 32.003 24.636 L 32.003 24.636 Q 31.601 25.512 31.601 26.671 L 31.601 26.671 L 31.601 26.671 Q 31.601 27.829 32.365 28.783 L 32.365 28.783 L 32.365 28.783 Q 33.128 29.737 34.744 29.737 L 34.744 29.737 L 34.744 29.737 Q 36.361 29.737 38.339 28.179 L 38.339 28.179 L 38.339 28.179 Q 38.448 28.094 38.552 28.009 Q 38.682 28.348 38.869 28.615 L 38.869 28.615 L 38.869 28.615 Q 39.482 29.491 40.767 29.491 L 40.767 29.491 L 40.767 29.491 Q 43.076 29.491 46.209 26.844 L 46.209 26.844 L 46.209 26.844 Q 47.896 25.403 49.523 23.36 L 49.523 23.36 L 49.523 23.36 Q 48.318 25.851 48.318 27.389 L 48.318 27.389 L 48.318 27.389 Q 48.318 29.861 51.33 29.861 L 51.33 29.861 L 51.33 29.861 Q 53.097 29.861 55.076 28.294 L 55.076 28.294 L 55.076 28.294 Q 55.138 28.245 55.199 28.196 L 55.199 28.196 L 55.199 28.196 Q 55.888 29.308 57.917 29.308 L 57.917 29.308 L 57.917 29.308 Q 58.921 29.308 60.96 28.004 L 60.96 28.004 L 60.96 28.004 Q 62.998 26.7 65.167 24.5 L 65.167 24.5 L 65.167 24.5 Q 62.616 28.471 61.13 30.632 L 61.13 30.632 L 61.13 30.632 Q 61.01 30.768 59.664 31.82 L 59.664 31.82 L 59.664 31.82 Q 58.319 32.871 56.712 34.525 L 56.712 34.525 L 56.712 34.525 Q 54.563 36.745 54.563 38.866 L 54.563 38.866 L 54.563 38.866 Q 54.563 40.949 56.833 40.949 L 56.833 40.949 L 56.833 40.949 Q 57.977 40.949 58.459 40.112 L 58.459 40.112 L 58.459 40.112 Q 59.765 37.951 62.777 34.428 L 62.777 34.428 L 62.777 34.428 Q 65.107 31.742 68.721 29.308 L 68.721 29.308 L 68.721 29.308 Q 69.695 28.654 70.601 28.073 Q 70.601 28.078 70.601 28.082 L 70.601 28.082 L 70.601 28.082 Q 70.601 28.355 70.752 28.471 L 70.752 28.471 L 70.752 28.471 Q 70.902 28.588 71.615 28.851 L 71.615 28.851 L 71.615 28.851 Q 72.328 29.114 72.76 29.114 L 72.76 29.114 L 72.76 29.114 Q 73.192 29.114 73.814 28.277 L 73.814 28.277 L 73.814 28.277 Q 75.963 25.474 77.801 23.517 L 77.801 23.517 L 77.801 23.517 Q 79.638 21.561 82.259 19.089 L 82.259 19.089 L 82.259 19.089 Q 84.88 16.616 85.542 16.558 L 85.542 16.558 L 85.582 16.597 L 85.582 16.597 Q 84.096 18.29 84.096 19.634 L 84.096 19.634 L 84.096 19.634 Q 84.096 20.237 84.448 20.685 L 84.448 20.685 L 84.448 20.685 Q 84.799 21.133 85.432 21.133 L 85.432 21.133 L 85.432 21.133 Q 86.064 21.133 86.566 20.51 L 86.566 20.51 L 86.566 20.51 Q 87.51 19.283 88.625 17.502 L 88.625 17.502 L 88.625 17.502 Q 89.739 15.721 89.739 14.962 L 89.739 14.962 L 89.739 14.962 Q 89.739 14.203 89.207 13.726 L 89.207 13.726 L 89.207 13.726 Q 88.675 13.249 87.852 13.249 L 87.852 13.249 L 87.852 13.249 Q 84.518 13.249 79.779 18.466 L 79.779 18.466 L 80.622 17.239 L 80.622 17.239 Q 82.369 14.709 82.369 13.794 L 82.369 13.794 L 82.369 13.794 Q 82.369 13.21 81.887 13.21 L 81.887 13.21 L 81.887 13.21 Q 79.738 13.21 78.835 14.319 L 78.835 14.319 L 78.835 14.319 Q 78.353 14.903 77.59 16.188 L 77.59 16.188 L 77.59 16.188 Q 77.228 16.811 75.381 19.809 L 75.381 19.809 L 75.381 19.809 Q 74.047 21.973 73.22 23.346 L 73.22 23.346 L 73.22 23.346 Z  M 100.387 16.546 L 100.387 16.546 L 100.387 16.546 Q 96.953 16.546 93.278 20.245 L 93.278 20.245 L 93.278 20.245 Q 91.973 21.569 90.878 23.418 L 90.878 23.418 L 90.878 23.418 Q 89.784 25.267 89.784 25.949 L 89.784 25.949 L 89.784 25.949 Q 89.784 26.63 90.185 26.63 L 90.185 26.63 L 90.185 26.63 Q 90.748 26.63 93.318 24.479 L 93.318 24.479 L 93.318 24.479 Q 95.889 22.328 96.732 21.316 L 96.732 21.316 L 96.732 21.316 Q 97.656 20.187 100.387 16.546 L 100.387 16.546 Z " fill-rule="evenodd"/></svg>